<?xml version="1.0" encoding="utf-8"?>
<!-- Generator: Adobe Illustrator 26.0.0, SVG Export Plug-In . SVG Version: 6.00 Build 0)  -->
<svg version="1.1" xmlns="http://www.w3.org/2000/svg" xmlns:xlink="http://www.w3.org/1999/xlink" x="0px" y="0px"
	 viewBox="0 0 3200 800" style="enable-background:new 0 0 3200 800;" xml:space="preserve">
<style type="text/css">
	.st0{display:none;}
	.st1{display:inline;fill:none;stroke:#00FFFF;stroke-width:10;stroke-miterlimit:10;}
	.st2{fill:none;stroke:#00FFFF;stroke-width:10;stroke-miterlimit:10;}
	.st3{fill:#00FFFF;stroke:#00FFFF;stroke-width:10;stroke-miterlimit:10;}
</style>
<g id="辅助线" class="st0">
	<path class="st1" d="M2467,500"/>
	<path class="st1" d="M2433,300"/>
	<line class="st2" x1="800" y1="100" x2="900" y2="400"/>
	<line class="st2" x1="900" y1="100" x2="800" y2="400"/>
</g>
<g id="图层_2">
	<polygon class="st2" points="2400,100 2433,300 2334,300 2317,200 2283,200 2266,300 2167,300 2200,100 	"/>
	<polygon class="st2" points="2500,700 2467,500 2367,500 2400,700 	"/>
	<polygon class="st2" points="2100,700 2200,700 2233,500 2133,500 	"/>
	<polygon class="st3" points="2441,350 2458,450 1700,450 1700,350 	"/>
	<rect x="1700" y="100" class="st3" width="100" height="200"/>
	<polygon class="st2" points="400,100 367,200 200,200 200,300 334,300 300,401 200,401 200,700 100,700 100,100 	"/>
	<rect x="500" y="100" class="st2" width="100" height="600"/>
	<rect x="1700" y="500" class="st3" width="100" height="200"/>
	<polygon class="st3" points="2067,300 2100,100 2000,100 1967,300 	"/>
	<polygon class="st3" points="1900,700 2000,700 2033,500 1933,500 	"/>
	<rect x="2600" y="100" class="st3" width="100" height="600"/>
	<polygon class="st3" points="2800,100 3100,100 3100,200 2900,200 2900,350 3100,350 3100,450 2900,450 2900,600 3100,600 
		3100,700 2800,700 	"/>
	<polygon class="st2" points="700,100 800,400 800,700 900,700 900,400 1000,100 900,100 850,250 800,100 	"/>
	<polygon class="st3" points="1100,600 1100,100 1200,100 1200,500 1250,600 1300,500 1300,300 1350,200 1400,300 1400,500 
		1450,600 1500,500 1500,100 1600,100 1600,600 1500,700 1400,700 1350,600 1300,700 1200,700 	"/>
</g>
</svg>
